<mxfile host="app.diagrams.net" modified="2022-08-29T07:36:18.473Z" agent="5.0 (Windows NT 10.0; Win64; x64) AppleWebKit/537.36 (KHTML, like Gecko) Chrome/103.0.0.0 Safari/537.36" etag="sV9I5L2TAB8jdUaCtMWo" version="20.2.7" type="github">
  <diagram id="p56V7s1jXcoGoC6fnhxT" name="第 1 页">
    <mxGraphModel dx="1422" dy="762" grid="0" gridSize="10" guides="1" tooltips="1" connect="1" arrows="1" fold="1" page="1" pageScale="1" pageWidth="3300" pageHeight="4681" math="0" shadow="0">
      <root>
        <mxCell id="0" />
        <mxCell id="1" parent="0" />
        <mxCell id="HVnTeeP2P0P9lp8k5EhV-6" style="edgeStyle=orthogonalEdgeStyle;rounded=0;orthogonalLoop=1;jettySize=auto;html=1;entryX=0.5;entryY=0;entryDx=0;entryDy=0;fontSize=21;endArrow=none;endFill=0;" parent="1" source="HVnTeeP2P0P9lp8k5EhV-2" target="HVnTeeP2P0P9lp8k5EhV-4" edge="1">
          <mxGeometry relative="1" as="geometry" />
        </mxCell>
        <mxCell id="HVnTeeP2P0P9lp8k5EhV-8" style="rounded=0;orthogonalLoop=1;jettySize=auto;html=1;exitX=0.5;exitY=1;exitDx=0;exitDy=0;fontSize=21;entryX=0.5;entryY=0;entryDx=0;entryDy=0;startArrow=none;startFill=0;endArrow=none;endFill=0;" parent="1" source="HVnTeeP2P0P9lp8k5EhV-2" target="HVnTeeP2P0P9lp8k5EhV-5" edge="1">
          <mxGeometry relative="1" as="geometry" />
        </mxCell>
        <mxCell id="HVnTeeP2P0P9lp8k5EhV-10" style="edgeStyle=none;rounded=0;orthogonalLoop=1;jettySize=auto;html=1;exitX=1;exitY=0.5;exitDx=0;exitDy=0;entryX=0;entryY=0.5;entryDx=0;entryDy=0;fontSize=21;startArrow=none;startFill=0;endArrow=none;endFill=0;dashed=1;" parent="1" source="HVnTeeP2P0P9lp8k5EhV-2" target="HVnTeeP2P0P9lp8k5EhV-3" edge="1">
          <mxGeometry relative="1" as="geometry" />
        </mxCell>
        <mxCell id="HVnTeeP2P0P9lp8k5EhV-2" value="伪批处理" style="rounded=1;whiteSpace=wrap;html=1;fontSize=21;" parent="1" vertex="1">
          <mxGeometry x="60" y="120" width="120" height="60" as="geometry" />
        </mxCell>
        <mxCell id="HVnTeeP2P0P9lp8k5EhV-7" style="edgeStyle=orthogonalEdgeStyle;rounded=0;orthogonalLoop=1;jettySize=auto;html=1;exitX=0.5;exitY=1;exitDx=0;exitDy=0;fontSize=21;endArrow=none;endFill=0;" parent="1" source="HVnTeeP2P0P9lp8k5EhV-3" target="HVnTeeP2P0P9lp8k5EhV-5" edge="1">
          <mxGeometry relative="1" as="geometry" />
        </mxCell>
        <mxCell id="HVnTeeP2P0P9lp8k5EhV-9" style="edgeStyle=none;rounded=0;orthogonalLoop=1;jettySize=auto;html=1;exitX=0.5;exitY=1;exitDx=0;exitDy=0;entryX=0.5;entryY=0;entryDx=0;entryDy=0;fontSize=21;endArrow=none;endFill=0;" parent="1" source="HVnTeeP2P0P9lp8k5EhV-3" target="HVnTeeP2P0P9lp8k5EhV-4" edge="1">
          <mxGeometry relative="1" as="geometry" />
        </mxCell>
        <mxCell id="HVnTeeP2P0P9lp8k5EhV-15" style="edgeStyle=none;rounded=0;orthogonalLoop=1;jettySize=auto;html=1;fontSize=21;startArrow=none;startFill=0;endArrow=block;endFill=0;shape=flexArrow;" parent="1" edge="1">
          <mxGeometry relative="1" as="geometry">
            <mxPoint x="730" y="150" as="targetPoint" />
            <mxPoint x="670" y="150" as="sourcePoint" />
          </mxGeometry>
        </mxCell>
        <mxCell id="HVnTeeP2P0P9lp8k5EhV-3" value="流处理" style="rounded=1;whiteSpace=wrap;html=1;fontSize=21;" parent="1" vertex="1">
          <mxGeometry x="530" y="120" width="120" height="60" as="geometry" />
        </mxCell>
        <mxCell id="HVnTeeP2P0P9lp8k5EhV-13" style="edgeStyle=none;rounded=0;orthogonalLoop=1;jettySize=auto;html=1;exitX=1;exitY=0.5;exitDx=0;exitDy=0;entryX=0;entryY=0.5;entryDx=0;entryDy=0;dashed=1;fontSize=21;startArrow=none;startFill=0;endArrow=none;endFill=0;" parent="1" source="HVnTeeP2P0P9lp8k5EhV-4" target="HVnTeeP2P0P9lp8k5EhV-5" edge="1">
          <mxGeometry relative="1" as="geometry" />
        </mxCell>
        <mxCell id="HVnTeeP2P0P9lp8k5EhV-4" value="分流" style="rounded=1;whiteSpace=wrap;html=1;fontSize=21;" parent="1" vertex="1">
          <mxGeometry x="60" y="250" width="120" height="60" as="geometry" />
        </mxCell>
        <mxCell id="HVnTeeP2P0P9lp8k5EhV-5" value="合流" style="rounded=1;whiteSpace=wrap;html=1;fontSize=21;" parent="1" vertex="1">
          <mxGeometry x="530" y="250" width="120" height="60" as="geometry" />
        </mxCell>
        <mxCell id="HVnTeeP2P0P9lp8k5EhV-12" value="&lt;span style=&quot;color: rgb(0, 0, 0); font-family: Helvetica; font-size: 21px; font-style: normal; font-variant-ligatures: normal; font-variant-caps: normal; font-weight: 400; letter-spacing: normal; orphans: 2; text-align: center; text-indent: 0px; text-transform: none; widows: 2; word-spacing: 0px; -webkit-text-stroke-width: 0px; background-color: rgb(255, 255, 255); text-decoration-thickness: initial; text-decoration-style: initial; text-decoration-color: initial; float: none; display: inline !important;&quot;&gt;区别在于是否keyby、window等&lt;/span&gt;" style="text;whiteSpace=wrap;html=1;fontSize=21;" parent="1" vertex="1">
          <mxGeometry x="210" y="100" width="310" height="50" as="geometry" />
        </mxCell>
        <mxCell id="HVnTeeP2P0P9lp8k5EhV-14" value="&lt;span style=&quot;color: rgb(0, 0, 0); font-family: Helvetica; font-size: 21px; font-style: normal; font-variant-ligatures: normal; font-variant-caps: normal; font-weight: 400; letter-spacing: normal; orphans: 2; text-align: center; text-indent: 0px; text-transform: none; widows: 2; word-spacing: 0px; -webkit-text-stroke-width: 0px; background-color: rgb(255, 255, 255); text-decoration-thickness: initial; text-decoration-style: initial; text-decoration-color: initial; float: none; display: inline !important;&quot;&gt;区别在于是否拆分topic&lt;/span&gt;" style="text;whiteSpace=wrap;html=1;fontSize=21;" parent="1" vertex="1">
          <mxGeometry x="252.5" y="280" width="225" height="40" as="geometry" />
        </mxCell>
        <mxCell id="HVnTeeP2P0P9lp8k5EhV-16" style="edgeStyle=none;rounded=0;orthogonalLoop=1;jettySize=auto;html=1;fontSize=21;startArrow=none;startFill=0;endArrow=block;endFill=0;shape=flexArrow;" parent="1" edge="1">
          <mxGeometry relative="1" as="geometry">
            <mxPoint x="730" y="280" as="targetPoint" />
            <mxPoint x="670" y="280" as="sourcePoint" />
          </mxGeometry>
        </mxCell>
        <mxCell id="HVnTeeP2P0P9lp8k5EhV-17" value="&lt;div style=&quot;text-align: center;&quot;&gt;&lt;span style=&quot;background-color: rgb(255, 255, 255);&quot;&gt;舍弃未映射的状态&lt;/span&gt;&lt;/div&gt;" style="text;whiteSpace=wrap;html=1;fontSize=21;" parent="1" vertex="1">
          <mxGeometry x="760" y="130" width="180" height="40" as="geometry" />
        </mxCell>
        <mxCell id="HVnTeeP2P0P9lp8k5EhV-18" value="&lt;div style=&quot;text-align: center;&quot;&gt;&lt;span style=&quot;background-color: rgb(255, 255, 255);&quot;&gt;状态类型不一致&lt;/span&gt;&lt;/div&gt;" style="text;whiteSpace=wrap;html=1;fontSize=21;" parent="1" vertex="1">
          <mxGeometry x="760" y="260" width="180" height="50" as="geometry" />
        </mxCell>
        <mxCell id="HVnTeeP2P0P9lp8k5EhV-19" value="" style="verticalLabelPosition=bottom;verticalAlign=top;html=1;shape=mxgraph.basic.tick;fontSize=21;fillColor=#d5e8d4;strokeColor=#82b366;" parent="1" vertex="1">
          <mxGeometry x="950" y="130" width="50" height="40" as="geometry" />
        </mxCell>
        <mxCell id="HVnTeeP2P0P9lp8k5EhV-20" value="" style="verticalLabelPosition=bottom;verticalAlign=top;html=1;shape=mxgraph.basic.x;fontSize=21;fillColor=#FFCCCC;" parent="1" vertex="1">
          <mxGeometry x="950" y="255" width="50" height="40" as="geometry" />
        </mxCell>
        <mxCell id="lRvz57GnexmRMPloJR-H-17" style="edgeStyle=orthogonalEdgeStyle;rounded=0;orthogonalLoop=1;jettySize=auto;html=1;exitX=1;exitY=0.5;exitDx=0;exitDy=0;entryX=0;entryY=0.5;entryDx=0;entryDy=0;fontSize=21;" parent="1" source="lRvz57GnexmRMPloJR-H-1" target="lRvz57GnexmRMPloJR-H-2" edge="1">
          <mxGeometry relative="1" as="geometry" />
        </mxCell>
        <mxCell id="lRvz57GnexmRMPloJR-H-1" value="source" style="ellipse;whiteSpace=wrap;html=1;aspect=fixed;spacing=2;fontSize=21;" parent="1" vertex="1">
          <mxGeometry x="166" y="435" width="73" height="73" as="geometry" />
        </mxCell>
        <mxCell id="lRvz57GnexmRMPloJR-H-18" style="edgeStyle=orthogonalEdgeStyle;rounded=0;orthogonalLoop=1;jettySize=auto;html=1;exitX=1;exitY=0.5;exitDx=0;exitDy=0;entryX=0;entryY=0.5;entryDx=0;entryDy=0;fontSize=21;" parent="1" source="lRvz57GnexmRMPloJR-H-2" target="lRvz57GnexmRMPloJR-H-3" edge="1">
          <mxGeometry relative="1" as="geometry" />
        </mxCell>
        <mxCell id="lRvz57GnexmRMPloJR-H-2" value="map" style="ellipse;whiteSpace=wrap;html=1;aspect=fixed;spacing=2;fontSize=21;" parent="1" vertex="1">
          <mxGeometry x="276" y="435" width="73" height="73" as="geometry" />
        </mxCell>
        <mxCell id="lRvz57GnexmRMPloJR-H-19" style="edgeStyle=orthogonalEdgeStyle;rounded=0;orthogonalLoop=1;jettySize=auto;html=1;exitX=1;exitY=0.5;exitDx=0;exitDy=0;fontSize=21;" parent="1" source="lRvz57GnexmRMPloJR-H-3" target="lRvz57GnexmRMPloJR-H-4" edge="1">
          <mxGeometry relative="1" as="geometry" />
        </mxCell>
        <mxCell id="lRvz57GnexmRMPloJR-H-3" value="filter" style="ellipse;whiteSpace=wrap;html=1;aspect=fixed;spacing=2;fontSize=21;" parent="1" vertex="1">
          <mxGeometry x="387" y="435" width="73" height="73" as="geometry" />
        </mxCell>
        <mxCell id="lRvz57GnexmRMPloJR-H-4" value="sink" style="ellipse;whiteSpace=wrap;html=1;aspect=fixed;spacing=2;fontSize=21;" parent="1" vertex="1">
          <mxGeometry x="750" y="435" width="73" height="73" as="geometry" />
        </mxCell>
        <mxCell id="lRvz57GnexmRMPloJR-H-24" style="edgeStyle=orthogonalEdgeStyle;rounded=0;orthogonalLoop=1;jettySize=auto;html=1;exitX=1;exitY=0.5;exitDx=0;exitDy=0;fontSize=21;" parent="1" source="lRvz57GnexmRMPloJR-H-6" target="lRvz57GnexmRMPloJR-H-12" edge="1">
          <mxGeometry relative="1" as="geometry" />
        </mxCell>
        <mxCell id="lRvz57GnexmRMPloJR-H-6" value="window" style="ellipse;whiteSpace=wrap;html=1;aspect=fixed;spacing=2;fontSize=21;" parent="1" vertex="1">
          <mxGeometry x="630" y="602" width="73" height="73" as="geometry" />
        </mxCell>
        <mxCell id="lRvz57GnexmRMPloJR-H-23" style="edgeStyle=orthogonalEdgeStyle;rounded=0;orthogonalLoop=1;jettySize=auto;html=1;exitX=1;exitY=0.5;exitDx=0;exitDy=0;fontSize=21;" parent="1" source="lRvz57GnexmRMPloJR-H-8" target="lRvz57GnexmRMPloJR-H-6" edge="1">
          <mxGeometry relative="1" as="geometry" />
        </mxCell>
        <mxCell id="lRvz57GnexmRMPloJR-H-8" value="keyBy" style="ellipse;whiteSpace=wrap;html=1;aspect=fixed;spacing=2;fontSize=21;" parent="1" vertex="1">
          <mxGeometry x="510" y="602" width="73" height="73" as="geometry" />
        </mxCell>
        <mxCell id="lRvz57GnexmRMPloJR-H-12" value="sink" style="ellipse;whiteSpace=wrap;html=1;aspect=fixed;spacing=2;fontSize=21;" parent="1" vertex="1">
          <mxGeometry x="750" y="602" width="73" height="73" as="geometry" />
        </mxCell>
        <mxCell id="lRvz57GnexmRMPloJR-H-20" style="edgeStyle=orthogonalEdgeStyle;rounded=0;orthogonalLoop=1;jettySize=auto;html=1;exitX=1;exitY=0.5;exitDx=0;exitDy=0;entryX=0;entryY=0.5;entryDx=0;entryDy=0;fontSize=21;" parent="1" source="lRvz57GnexmRMPloJR-H-13" target="lRvz57GnexmRMPloJR-H-14" edge="1">
          <mxGeometry relative="1" as="geometry" />
        </mxCell>
        <mxCell id="lRvz57GnexmRMPloJR-H-13" value="source" style="ellipse;whiteSpace=wrap;html=1;aspect=fixed;spacing=2;fontSize=21;" parent="1" vertex="1">
          <mxGeometry x="166" y="602" width="73" height="73" as="geometry" />
        </mxCell>
        <mxCell id="lRvz57GnexmRMPloJR-H-21" style="edgeStyle=orthogonalEdgeStyle;rounded=0;orthogonalLoop=1;jettySize=auto;html=1;exitX=1;exitY=0.5;exitDx=0;exitDy=0;fontSize=21;" parent="1" source="lRvz57GnexmRMPloJR-H-14" target="lRvz57GnexmRMPloJR-H-15" edge="1">
          <mxGeometry relative="1" as="geometry" />
        </mxCell>
        <mxCell id="lRvz57GnexmRMPloJR-H-14" value="map" style="ellipse;whiteSpace=wrap;html=1;aspect=fixed;spacing=2;fontSize=21;" parent="1" vertex="1">
          <mxGeometry x="276" y="602" width="73" height="73" as="geometry" />
        </mxCell>
        <mxCell id="lRvz57GnexmRMPloJR-H-22" style="edgeStyle=orthogonalEdgeStyle;rounded=0;orthogonalLoop=1;jettySize=auto;html=1;exitX=1;exitY=0.5;exitDx=0;exitDy=0;entryX=0;entryY=0.5;entryDx=0;entryDy=0;fontSize=21;" parent="1" source="lRvz57GnexmRMPloJR-H-15" target="lRvz57GnexmRMPloJR-H-8" edge="1">
          <mxGeometry relative="1" as="geometry" />
        </mxCell>
        <mxCell id="lRvz57GnexmRMPloJR-H-15" value="filter" style="ellipse;whiteSpace=wrap;html=1;aspect=fixed;spacing=2;fontSize=21;" parent="1" vertex="1">
          <mxGeometry x="387" y="602" width="73" height="73" as="geometry" />
        </mxCell>
        <mxCell id="lRvz57GnexmRMPloJR-H-30" value="" style="shape=flexArrow;endArrow=classic;html=1;rounded=0;fontSize=21;" parent="1" edge="1">
          <mxGeometry width="50" height="50" relative="1" as="geometry">
            <mxPoint x="312" y="520" as="sourcePoint" />
            <mxPoint x="312" y="600" as="targetPoint" />
          </mxGeometry>
        </mxCell>
        <mxCell id="lRvz57GnexmRMPloJR-H-31" value="" style="shape=flexArrow;endArrow=classic;html=1;rounded=0;fontSize=21;" parent="1" edge="1">
          <mxGeometry width="50" height="50" relative="1" as="geometry">
            <mxPoint x="786" y="520" as="sourcePoint" />
            <mxPoint x="786" y="600" as="targetPoint" />
          </mxGeometry>
        </mxCell>
        <mxCell id="GDET33uGNf__s4t4wHCb-1" value="伪批处理" style="rounded=1;whiteSpace=wrap;html=1;fontSize=21;" parent="1" vertex="1">
          <mxGeometry x="15" y="441.5" width="120" height="60" as="geometry" />
        </mxCell>
        <mxCell id="GDET33uGNf__s4t4wHCb-2" value="流处理" style="rounded=1;whiteSpace=wrap;html=1;fontSize=21;" parent="1" vertex="1">
          <mxGeometry x="15" y="608.5" width="120" height="60" as="geometry" />
        </mxCell>
      </root>
    </mxGraphModel>
  </diagram>
</mxfile>
